:SAMPLES-PER-SECOND 30
:FULLY-SPECIFIED
:DEGREES
550
root  -18.0976 39.3497 -8.25533 177.731 0.731628 177.39
RightUpLeg  -1.0329 19.9296 5.65442
RightLeg  20.5933 13.8068 4.0032
RightFoot  -11.8587 -0.128714 -10.7032
RightToes  2.21189e-009 0 -3.6325e-017
Spine  1.92527 -1.57782 1.70787
Spine1  11.2029 -2.02845 1.99614
HEad  12.1657 -14.5615 3.51898
LeftShoulder1  -0.186613 3.9891 -32.3243
LeftArm  -2.61744 13.6274 -35.046
LeftForeArm  16.7208 -15.3721 -5.87416
LeftHand  -0.0319959 4.84826 1.45818
RightShoulder  -0.910242 -6.10995 28.3444
RightArm  20.3209 -3.09158 43.2218
RightForeArm  0.371439 26.2444 5.60887
RightHand  -0.461323 3.24544 -6.44057
LeftUpLeg  -10.6348 -5.46452 6.85338
LeftLeg  11.6255 -22.055 -2.71382
LeftFoot  -2.94556 0.506033 -6.56584
LeftToes  -3.01956e-010 3.07132e-011 1.04116e-011
551
root  -18.5016 39.2867 -8.61328 177.791 4.78648 177.604
RightUpLeg  -1.33369 25.4666 5.3632
RightLeg  21.8797 12.2015 5.10943
RightFoot  -12.9251 -0.22736 -10.0471
RightToes  2.21189e-009 0 -3.6325e-017
Spine  2.72404 -1.70838 -0.83539
Spine1  11.082 -2.5739 3.29829
HEad  12.2199 -15.5711 3.77657
LeftShoulder1  -0.210468 4.05195 -32.2542
LeftArm  -3.42676 13.347 -34.6251
LeftForeArm  15.8494 -15.4276 -5.70795
LeftHand  -0.0389454 4.35885 1.93262
RightShoulder  -0.95707 -6.19323 29.0268
RightArm  20.4899 -2.74271 42.1171
RightForeArm  -1.98722 23.3907 5.17544
RightHand  -0.480146 3.01299 -6.86124
LeftUpLeg  -10.4713 -5.54762 7.44807
LeftLeg  13.9764 -17.5583 -3.49759
LeftFoot  -5.1314 0.410206 -7.00708
LeftToes  -3.01956e-010 3.07132e-011 1.04116e-011
552
root  -18.8291 39.2529 -8.93144 178.049 9.21272 177.266
RightUpLeg  -2.75214 25.6844 3.83797
RightLeg  24.1605 14.3488 6.74236
RightFoot  -13.8462 -0.278279 -8.44458
RightToes  2.21189e-009 0 -3.6325e-017
Spine  3.49339 -1.69676 -3.93236
Spine1  10.5613 -2.88678 4.18386
HEad  12.0083 -16.4538 3.96434
LeftShoulder1  -0.163633 3.93682 -31.684
LeftArm  -4.71645 13.1101 -34.3042
LeftForeArm  15.5983 -15.0932 -5.57687
LeftHand  -0.0352383 4.65857 1.84568
RightShoulder  -0.914842 -6.10299 28.6175
RightArm  18.9814 -3.34306 42.6001
RightForeArm  -2.58118 20.0825 5.05673
RightHand  -0.470775 3.03388 -6.62719
LeftUpLeg  -9.88548 -1.66823 7.16176
LeftLeg  15.0429 -16.9822 -4.08744
LeftFoot  -6.26735 0.368948 -7.45931
LeftToes  -3.01956e-010 3.07132e-011 1.04116e-011
553
root  -19.1611 39.2852 -9.24272 178.826 14.7609 177.071
RightUpLeg  -5.18024 22.156 1.45284
RightLeg  25.9808 16.5624 8.4074
RightFoot  -14.9718 -0.197757 -3.34306
RightToes  2.21189e-009 0 -3.6325e-017
Spine  3.69847 -1.49416 -5.33761
Spine1  9.74407 -2.58527 3.42279
HEad  11.8736 -17.0524 3.92419
LeftShoulder1  -0.134869 3.85859 -31.8768
LeftArm  -4.47245 12.6055 -32.8158
LeftForeArm  14.907 -14.7539 -5.74543
LeftHand  -0.0352 4.61632 1.75119
RightShoulder  -0.85973 -5.98634 28.0413
RightArm  15.8531 -4.47948 43.2414
RightForeArm  -0.39356 17.3479 5.27286
RightHand  -0.324336 1.51507 -5.55151
LeftUpLeg  -9.35259 2.19602 6.77972
LeftLeg  15.3889 -15.299 -3.69871
LeftFoot  -6.99781 0.304952 -6.91926
LeftToes  -3.01956e-010 3.07132e-011 1.04116e-011
554
root  -19.4965 39.324 -9.55179 179.627 20.5998 176.946
RightUpLeg  -7.95055 16.3699 -0.848256
RightLeg  28.0349 18.5833 10.241
RightFoot  -16.359 0.0667684 4.18079
RightToes  2.21189e-009 0 -3.6325e-017
Spine  3.64289 -1.44097 -6.27835
Spine1  9.18994 -2.37032 2.35266
HEad  10.5588 -17.1344 2.99974
LeftShoulder1  -0.171816 3.95287 -32.1503
LeftArm  -5.6311 11.9619 -31.7517
LeftForeArm  15.5798 -14.0878 -5.68107
LeftHand  -0.0386054 4.47357 2.04072
RightShoulder  -0.858514 -5.97052 28.2103
RightArm  15.4835 -4.73509 42.9282
RightForeArm  -2.72615 15.1633 5.91506
RightHand  -0.512135 2.03609 -8.2173
LeftUpLeg  -8.88762 5.29546 6.34605
LeftLeg  15.6633 -12.5685 -2.97428
LeftFoot  -7.74239 0.238171 -6.10777
LeftToes  -3.01956e-010 3.07132e-011 1.04116e-011
